PathFileType	4	(X/Y/Z)	C:\Users\Basilio\Documents\Thesis Gigler\squatting_fais\c3dfiles\047\SLS_pre_back1\markers_experimental.trc
DataRate	CameraRate	NumFrames	NumMarkers	Units	OrigDataRate	OrigDataStartFrame	OrigNumFrames
200.000000	200.000000	4	60	mm	200.000000	630	1260
Frame#	Time	FHD			LBHD			RBHD			C7			T10			CLAV			LSHO			LUUPA			LMUPA			LDUPA			LLEP			LMEP			LRAD			LUL			LRFIN			RSHO			RUPA1			RMUPA			RDUPA			RLEP			RMEP			RUL			RUFIN			LASI			RASI			USACR			LSACR			RSACR			LTHI1			LTHI2			LTHI3			LTHI4			LLFC			LMFC			LTIB1			LTIB2			LTIB3			LTIB4			LLMAL			LMMAL			LMT1			LMT2			LMT5			RTHI			RTHI2			RTHI3			RTHI4			RLFC			RMFC			RTIB1			RTIB2			RTIB3			RTIB4			RLMAL			RHEE			RMT1			RMT2			RMT5			RMMAL			*59			
		X1	Y1	Z1	X2	Y2	Z2	X3	Y3	Z3	X4	Y4	Z4	X5	Y5	Z5	X6	Y6	Z6	X7	Y7	Z7	X8	Y8	Z8	X9	Y9	Z9	X10	Y10	Z10	X11	Y11	Z11	X12	Y12	Z12	X13	Y13	Z13	X14	Y14	Z14	X15	Y15	Z15	X16	Y16	Z16	X17	Y17	Z17	X18	Y18	Z18	X19	Y19	Z19	X20	Y20	Z20	X21	Y21	Z21	X22	Y22	Z22	X23	Y23	Z23	X24	Y24	Z24	X25	Y25	Z25	X26	Y26	Z26	X27	Y27	Z27	X28	Y28	Z28	X29	Y29	Z29	X30	Y30	Z30	X31	Y31	Z31	X32	Y32	Z32	X33	Y33	Z33	X34	Y34	Z34	X35	Y35	Z35	X36	Y36	Z36	X37	Y37	Z37	X38	Y38	Z38	X39	Y39	Z39	X40	Y40	Z40	X41	Y41	Z41	X42	Y42	Z42	X43	Y43	Z43	X44	Y44	Z44	X45	Y45	Z45	X46	Y46	Z46	X47	Y47	Z47	X48	Y48	Z48	X49	Y49	Z49	X50	Y50	Z50	X51	Y51	Z51	X52	Y52	Z52	X53	Y53	Z53	X54	Y54	Z54	X55	Y55	Z55	X56	Y56	Z56	X57	Y57	Z57	X58	Y58	Z58	X59	Y59	Z59	X60	Y60	Z60	

631	3.15	102.1012649536133	1337.324951171875	-1121.120483398438	-78.35104370117189	1336.936645507813	-1145.879150390625	-53.4615936279297	1335.75439453125	-999.462829589844	-143.6691436767578	1204.302978515625	-1069.232177734375	-344.7676086425782	984.0246582031252	-1010.711059570313	-48.07594299316408	1076.275512695313	-1095.284545898438	-103.8638458251953	1122.834106445313	-1245.8798828125	-103.9737930297852	958.9184570312502	-1342.164184570313	-53.4916458129883	966.3052978515627	-1342.318237304688	-58.50793838500978	907.1619873046877	-1353.276977539063	2.713779449462891	867.1763305664065	-1361.133911132813	-22.14741134643555	828.5335083007815	-1284.16455078125	208.5920410156251	912.161315917969	-1212.9541015625	220.8674774169922	837.5999755859377	-1208.7939453125	302.3630676269532	892.8426513671877	-1212.465454101563	-37.62952041625977	1127.409423828125	-943.2334594726565	13.40603542327881	970.819519042969	-842.6750488281252	53.77869415283205	975.5969238281252	-869.7208251953127	58.78876113891603	918.4556884765627	-850.790954589844	119.8714065551758	878.810729980469	-874.174011230469	65.50495910644533	826.4871215820315	-920.877136230469	275.4032592773438	842.9737548828127	-1082.353759765625	276.4684753417969	924.1640625000002	-1127.697509765625	-315.0351867675782	716.6107177734376	-1089.786743164063	-311.8982849121094	721.0916748046876	-863.5393066406252	-440.7872924804689	871.9035644531252	-980.6013793945315	-464.3148193359376	849.448913574219	-1008.319458007813	-459.233856201172	846.9986572265627	-949.7707519531252	-353.7266235351563	637.7553100585939	-1173.922607421875	-272.5753479003907	616.2042846679689	-1172.269287109375	-243.5101928710938	652.0284423828126	-1155.567138671875	-249.2689361572266	561.0502319335939	-1176.690673828125	-141.101806640625	436.9384765625001	-1150.019287109375	-109.8502655029297	447.8943176269532	-1024.93359375	-175.271240234375	288.0306091308594	-1031.902099609375	-203.9180297851563	240.8583374023438	-1097.94140625	-192.3972473144532	237.230453491211	-1053.69384765625	-247.8355255126954	186.55224609375	-1018.7197265625	-341.4413146972657	121.9858779907227	-1061.567138671875	-316.6284179687501	141.799057006836	-973.7832641601565	-209.1836090087891	63.15242004394533	-989.9687500000002	-207.4837799072266	62.07210159301759	-1035.326049804688	-258.3975219726563	51.17015457153322	-1079.071411132813	-416.8277893066407	574.5368652343751	-768.163269042969	-379.4032287597657	519.3085327148439	-762.9157714843751	-349.4229125976563	517.9804687500001	-774.5371093750002	-408.3620605468751	440.1152343750001	-759.0195922851564	-411.2055969238282	308.5263366699219	-774.992126464844	-412.0021362304689	283.4027709960938	-905.0569458007815	-516.9492797851564	247.8345947265626	-784.6270141601565	-597.6020507812501	316.6548767089844	-750.7791748046876	-597.0120239257814	269.8104553222657	-758.0911254882814	-647.0899658203126	255.7400360107422	-788.108825683594	-796.1643676757815	324.3135070800782	-761.1254882812501	-812.6074218750002	377.6263732910157	-822.6494140625002	-882.7215576171877	180.4962463378907	-816.0881958007815	-882.290466308594	178.6521911621094	-771.8068847656252	-899.7136840820315	239.4566192626954	-726.0381469726564	-785.5640258789065	283.7153625488282	-843.3979492187502	nan	nan	nan	
632	3.155	102.175651550293	1337.029418945313	-1121.193481445313	-78.17652893066408	1336.581909179688	-1146.064331054688	-53.33044815063478	1335.500244140625	-999.5967407226565	-143.4406890869141	1203.895385742188	-1069.310668945313	-344.5946044921876	983.7656860351565	-1010.627380371094	-47.67530822753907	1075.980834960938	-1095.522216796875	-103.1579818725586	1122.169677734375	-1245.898559570313	-103.9548034667969	958.5239257812502	-1342.2119140625	-54.16286468505861	966.0207519531252	-1342.11181640625	-58.58106994628908	906.7276000976565	-1353.28076171875	2.769607782363892	866.626403808594	-1361.15234375	-22.0740966796875	828.2031250000002	-1284.634521484375	208.6098327636719	911.7291259765627	-1213.080444335938	220.9396057128907	836.9398193359377	-1208.891723632813	302.4159240722657	892.1549072265627	-1212.520141601563	-37.55474472045899	1127.09619140625	-943.1074218750002	13.42407703399659	970.3037719726565	-842.7031860351565	53.83839035034181	975.2443847656252	-869.978942871094	58.91652297973634	918.124938964844	-850.966247558594	119.6072845458985	878.5428466796877	-872.0921020507815	65.49909973144533	825.9908447265627	-920.9719238281252	275.5213623046876	842.488952636719	-1082.523071289063	276.2890625000001	923.451599121094	-1127.597778320313	-314.9787902832032	716.5355224609376	-1089.692749023438	-311.9291687011719	720.9472656250001	-863.4621582031252	-440.7598266601564	871.772399902344	-980.4809570312502	-464.2305908203126	849.3770751953127	-1008.211303710938	-459.1972045898439	846.9232177734377	-949.6791992187502	-353.9425048828126	637.8013916015626	-1173.818481445313	-272.3092651367188	616.4526367187501	-1172.705444335938	-243.6949615478516	652.0335693359376	-1155.473510742188	-249.4208526611329	561.1630859375001	-1176.87255859375	-141.1552429199219	437.0467834472657	-1150.210327148438	-109.7974548339844	447.8413085937501	-1025.232177734375	-175.0331115722657	288.0687561035157	-1032.240356445313	-203.9998779296876	240.9088287353516	-1098.12060546875	-192.4349517822266	237.0700836181641	-1053.891357421875	-247.8369598388672	186.5242309570313	-1018.79345703125	-341.4852600097657	121.9358291625977	-1061.73876953125	-316.6507263183594	141.7908325195313	-973.9320068359377	-209.1804656982422	63.11188888549806	-990.040466308594	-207.5759277343751	62.03295516967775	-1035.407104492188	-258.3629760742188	51.06904220581056	-1079.141235351563	-416.941375732422	574.4313354492189	-768.0225219726565	-379.4574584960938	519.2681884765626	-762.7523803710939	-349.5084838867188	517.8162841796876	-774.4097900390627	-408.5396728515626	439.9452514648439	-758.9099121093751	-411.3670043945314	308.4350280761719	-774.9202880859377	-412.2435302734376	283.3327941894532	-904.9497070312502	-517.1333007812501	247.6689605712891	-784.797790527344	-597.7313842773439	316.6040039062501	-750.7174682617189	-597.1771240234376	269.6765441894532	-758.0570678710939	-647.1441040039064	255.6173248291016	-788.3295898437502	-796.3362426757815	324.2541503906251	-761.1901245117189	-812.7344970703127	377.4871520996094	-822.711853027344	-882.7371215820315	180.3997497558594	-816.282653808594	-882.4406738281252	178.3990020751953	-771.7446289062502	-899.8843383789065	239.3388977050782	-725.9940185546876	-785.6174316406252	283.5934143066407	-843.399597167969	nan	nan	nan	
633	3.16	102.413818359375	1336.712280273438	-1121.424926757813	-78.1299285888672	1336.24951171875	-1146.1044921875	-53.10682678222658	1335.178588867188	-999.5413818359377	-143.3237609863282	1203.616088867188	-1069.280639648438	-344.5032348632813	983.639587402344	-1010.570495605469	-47.62144088745118	1075.595092773438	-1095.449096679688	-103.0766372680664	1121.789672851563	-1245.860595703125	-103.8550262451172	958.1555175781252	-1342.203857421875	-53.86106491088869	965.690856933594	-1342.514892578125	-58.61858367919923	906.2285156250002	-1353.329956054688	2.679438591003418	866.1612548828127	-1361.231201171875	-22.01109886169434	827.700134277344	-1284.719970703125	208.8817749023438	911.3118896484377	-1213.338745117188	221.0003356933594	836.3994140625002	-1209.013793945313	302.6745910644532	891.7073364257815	-1212.860717773438	-37.38993453979493	1126.685302734375	-943.139343261719	13.55107593536377	969.955261230469	-842.7658691406252	54.02024078369142	974.9312133789065	-870.1719360351565	59.13291549682619	917.6213378906252	-851.1943969726565	120.11962890625	878.0006103515627	-873.3369140625002	65.52874755859376	825.6929321289065	-921.0488281250002	275.5658264160157	842.0698242187502	-1082.551635742188	276.3566894531251	922.8352661132815	-1127.691650390625	-315.1558227539063	716.3116455078126	-1089.664916992188	-311.9256591796876	720.7598266601564	-863.4456176757815	-440.6996459960939	871.7135009765627	-980.372009277344	-464.1971130371095	849.2957153320315	-1008.082641601563	-459.1417236328126	846.887145996094	-949.574401855469	-354.0688476562501	637.8433227539064	-1173.77392578125	-272.4519348144532	616.4911499023439	-1172.761962890625	-243.9198913574219	651.9957275390626	-1155.430908203125	-249.5744934082032	561.2119750976564	-1176.982177734375	-141.30712890625	437.0301513671876	-1150.484741210938	-109.5722579956055	447.5548400878907	-1026.220947265625	-175.0886993408203	287.9851684570313	-1032.193969726563	-203.8870849609376	240.9346160888672	-1098.298828125	-192.4135131835938	237.1170806884766	-1053.9873046875	-247.8098754882813	186.557601928711	-1019.111206054688	-341.3243408203126	121.8982620239258	-1061.793334960938	-316.5393371582032	141.8689422607422	-973.917175292969	-209.175521850586	63.09996414184572	-990.0604248046877	-207.4274291992188	61.99937438964845	-1035.346069335938	-258.3507385253907	51.07975387573244	-1079.138061523438	-417.1230468750001	574.2043457031251	-767.9886474609376	-379.5544128417969	519.2603149414064	-762.4982910156251	-349.5715026855469	517.6401977539064	-774.294616699219	-408.5749511718751	439.8335266113282	-758.8695068359376	-411.4935607910157	308.2107849121094	-774.9122314453127	-412.197235107422	283.2147521972657	-904.8942871093752	-517.3457031250001	247.575912475586	-784.7741699218752	-597.8950195312501	316.5319824218751	-750.6954956054689	-597.3777465820314	269.6072082519532	-757.9131469726564	-647.3121948242189	255.4705810546876	-788.2820434570315	-796.4786376953127	324.2206420898438	-761.2684326171876	-812.8743896484377	377.2828674316407	-822.7033691406252	-883.223815917969	180.4868469238282	-816.0715942382815	-882.6662597656252	178.4842681884766	-771.9895019531252	-900.0177001953127	239.2244415283204	-726.0490722656251	-785.8247680664065	283.5475463867188	-843.3933105468752	nan	nan	nan	
634	3.165	102.9647750854492	1336.602172851563	-1121.710571289063	-77.95247650146486	1335.813232421875	-1146.153930664063	-52.92892837524415	1334.880004882813	-999.4802246093752	-143.0521545410157	1203.35107421875	-1069.237060546875	-344.3000488281251	983.5222167968752	-1010.498901367188	-47.61973571777344	1075.16796875	-1095.3447265625	-103.3487243652344	1121.5791015625	-1245.993041992188	-103.8775177001953	957.7686157226565	-1342.2705078125	-53.80651473999025	965.2271728515627	-1342.474243164063	-58.60903930664064	905.7781982421877	-1353.399536132813	2.604453325271607	865.7949829101565	-1361.26708984375	-21.83151054382325	827.3041992187502	-1285.464599609375	208.8895416259766	910.6838378906252	-1213.446899414063	221.010482788086	835.8569946289065	-1209.138671875	303.1363525390626	891.272399902344	-1213.418090820313	-37.02284240722657	1126.525512695313	-943.357360839844	13.63786029815674	969.4768066406252	-842.7581176757815	54.0822219848633	974.6561279296877	-870.0007934570315	59.16402435302736	917.1671142578127	-851.3093261718752	120.1850967407227	877.6273193359377	-873.5025634765627	65.48137664794923	825.3874511718752	-921.0581054687502	275.7239990234376	841.5753173828127	-1082.421142578125	276.5073547363282	922.5566406250002	-1128.185302734375	-315.1617431640626	716.1496582031251	-1089.594482421875	-311.9436950683594	720.5376586914064	-863.3799438476565	-440.666229248047	871.611511230469	-980.2217407226565	-464.1135559082032	849.1851806640627	-1007.977783203125	-459.002410888672	846.7961425781252	-949.502136230469	-354.2146301269532	637.8690795898439	-1173.745361328125	-272.6271057128907	616.4616088867189	-1172.762939453125	-243.9572296142579	652.0650634765626	-1155.632080078125	-249.7571411132813	561.2167968750001	-1177.164672851563	-141.4069519042969	437.0091857910157	-1150.7470703125	-109.6883926391602	447.8895568847657	-1025.720458984375	-175.0333251953125	288.1238708496094	-1032.376831054688	-203.7538604736329	240.9359741210938	-1098.384155273438	-192.4274291992188	237.0312805175782	-1053.9765625	-247.8222198486329	186.6273040771485	-1019.013793945313	-341.2778015136719	121.9003524780274	-1061.814086914063	-316.5281677246094	141.8724212646485	-973.9340820312502	-209.1174468994141	63.16056442260744	-990.047302246094	-207.4636993408204	61.95542526245119	-1035.36767578125	-258.3587951660157	50.98200988769533	-1079.118286132813	-417.1108398437501	574.1034545898439	-767.9597778320314	-379.6788024902344	519.2484741210939	-762.3424072265626	-349.5857543945313	517.4465332031251	-774.2358398437502	-408.6297302246095	439.6482849121095	-758.8281250000001	-411.4925842285157	308.0672607421876	-774.710632324219	-412.2027893066407	283.0067749023438	-904.6614379882815	-517.4075927734376	247.4730529785157	-784.8579101562502	-598.1907348632814	316.4316711425782	-750.6203613281251	-597.4979248046876	269.4972839355469	-757.8588867187501	-647.4687500000001	255.437728881836	-788.2676391601565	-796.6525878906252	324.2055053710938	-761.3436889648439	-812.9350585937502	377.2324829101563	-822.773132324219	-883.1209106445315	179.4235992431641	-816.4681396484377	-882.7604980468752	178.4993743896485	-771.773132324219	-900.202819824219	239.274642944336	-726.1652221679689	-785.8811035156252	283.5095520019532	-843.3987426757815	nan	nan	nan	
